<mxfile host="app.diagrams.net" modified="2023-07-27T08:04:23.102Z" agent="Mozilla/5.0 (Windows NT 10.0; Win64; x64) AppleWebKit/537.36 (KHTML, like Gecko) Chrome/115.0.0.0 Safari/537.36" etag="VkJuQqE6rh6qjZzm5Dfa" version="21.6.5" type="github">
  <diagram name="Page-1" id="9l_n-vJ5dFMjZLFDEs7Z">
    <mxGraphModel dx="3267" dy="1315" grid="1" gridSize="10" guides="1" tooltips="1" connect="1" arrows="1" fold="1" page="1" pageScale="1" pageWidth="827" pageHeight="1169" math="0" shadow="0">
      <root>
        <mxCell id="0" />
        <mxCell id="1" parent="0" />
        <mxCell id="hEPiWNOAB4XM48eltgoP-20" style="edgeStyle=orthogonalEdgeStyle;rounded=0;orthogonalLoop=1;jettySize=auto;html=1;entryX=0;entryY=0.5;entryDx=0;entryDy=0;" parent="1" source="hEPiWNOAB4XM48eltgoP-1" target="hEPiWNOAB4XM48eltgoP-2" edge="1">
          <mxGeometry relative="1" as="geometry" />
        </mxCell>
        <mxCell id="hEPiWNOAB4XM48eltgoP-1" value="投标申请录入" style="rounded=0;whiteSpace=wrap;html=1;" parent="1" vertex="1">
          <mxGeometry x="60" y="350" width="120" height="60" as="geometry" />
        </mxCell>
        <mxCell id="hEPiWNOAB4XM48eltgoP-21" style="edgeStyle=orthogonalEdgeStyle;rounded=0;orthogonalLoop=1;jettySize=auto;html=1;entryX=0;entryY=0.5;entryDx=0;entryDy=0;" parent="1" source="hEPiWNOAB4XM48eltgoP-2" target="hEPiWNOAB4XM48eltgoP-5" edge="1">
          <mxGeometry relative="1" as="geometry" />
        </mxCell>
        <mxCell id="hEPiWNOAB4XM48eltgoP-2" value="投标审核（风控）" style="rounded=0;whiteSpace=wrap;html=1;" parent="1" vertex="1">
          <mxGeometry x="230" y="350" width="120" height="60" as="geometry" />
        </mxCell>
        <mxCell id="hEPiWNOAB4XM48eltgoP-23" style="edgeStyle=orthogonalEdgeStyle;rounded=0;orthogonalLoop=1;jettySize=auto;html=1;" parent="1" source="hEPiWNOAB4XM48eltgoP-5" target="hEPiWNOAB4XM48eltgoP-6" edge="1">
          <mxGeometry relative="1" as="geometry" />
        </mxCell>
        <mxCell id="hEPiWNOAB4XM48eltgoP-5" value="投标上报（交易）" style="rounded=0;whiteSpace=wrap;html=1;" parent="1" vertex="1">
          <mxGeometry x="414" y="350" width="120" height="60" as="geometry" />
        </mxCell>
        <mxCell id="hEPiWNOAB4XM48eltgoP-24" style="edgeStyle=orthogonalEdgeStyle;rounded=0;orthogonalLoop=1;jettySize=auto;html=1;entryX=0;entryY=0.5;entryDx=0;entryDy=0;" parent="1" source="hEPiWNOAB4XM48eltgoP-6" target="hEPiWNOAB4XM48eltgoP-7" edge="1">
          <mxGeometry relative="1" as="geometry" />
        </mxCell>
        <mxCell id="hEPiWNOAB4XM48eltgoP-6" value="中标录入（交易）" style="rounded=0;whiteSpace=wrap;html=1;" parent="1" vertex="1">
          <mxGeometry x="600" y="350" width="120" height="60" as="geometry" />
        </mxCell>
        <mxCell id="hEPiWNOAB4XM48eltgoP-25" style="edgeStyle=orthogonalEdgeStyle;rounded=0;orthogonalLoop=1;jettySize=auto;html=1;entryX=0;entryY=0.5;entryDx=0;entryDy=0;" parent="1" source="hEPiWNOAB4XM48eltgoP-7" target="hEPiWNOAB4XM48eltgoP-8" edge="1">
          <mxGeometry relative="1" as="geometry" />
        </mxCell>
        <mxCell id="hEPiWNOAB4XM48eltgoP-7" value="经理确认" style="rounded=0;whiteSpace=wrap;html=1;" parent="1" vertex="1">
          <mxGeometry x="780" y="350" width="120" height="60" as="geometry" />
        </mxCell>
        <mxCell id="hEPiWNOAB4XM48eltgoP-26" style="edgeStyle=orthogonalEdgeStyle;rounded=0;orthogonalLoop=1;jettySize=auto;html=1;entryX=0;entryY=0.5;entryDx=0;entryDy=0;" parent="1" source="hEPiWNOAB4XM48eltgoP-8" target="hEPiWNOAB4XM48eltgoP-9" edge="1">
          <mxGeometry relative="1" as="geometry" />
        </mxCell>
        <mxCell id="hEPiWNOAB4XM48eltgoP-8" value="冻结头寸（运营）" style="rounded=0;whiteSpace=wrap;html=1;" parent="1" vertex="1">
          <mxGeometry x="970" y="350" width="120" height="60" as="geometry" />
        </mxCell>
        <mxCell id="hEPiWNOAB4XM48eltgoP-27" style="edgeStyle=orthogonalEdgeStyle;rounded=0;orthogonalLoop=1;jettySize=auto;html=1;entryX=0;entryY=0.5;entryDx=0;entryDy=0;" parent="1" source="hEPiWNOAB4XM48eltgoP-9" target="hEPiWNOAB4XM48eltgoP-10" edge="1">
          <mxGeometry relative="1" as="geometry" />
        </mxCell>
        <mxCell id="hEPiWNOAB4XM48eltgoP-9" value="分销审核（风控）" style="rounded=0;whiteSpace=wrap;html=1;" parent="1" vertex="1">
          <mxGeometry x="1150" y="350" width="120" height="60" as="geometry" />
        </mxCell>
        <mxCell id="hEPiWNOAB4XM48eltgoP-10" value="缴款确认（运营）" style="rounded=0;whiteSpace=wrap;html=1;" parent="1" vertex="1">
          <mxGeometry x="1320" y="350" width="120" height="60" as="geometry" />
        </mxCell>
        <mxCell id="hEPiWNOAB4XM48eltgoP-17" value="" style="group" parent="1" vertex="1" connectable="0">
          <mxGeometry x="109" y="406" width="331" height="212.5" as="geometry" />
        </mxCell>
        <mxCell id="hEPiWNOAB4XM48eltgoP-14" value="" style="strokeWidth=2;html=1;shape=mxgraph.flowchart.annotation_2;align=left;labelPosition=right;pointerEvents=1;rotation=-90;" parent="hEPiWNOAB4XM48eltgoP-17" vertex="1">
          <mxGeometry x="159.19" y="-148.12" width="41.38" height="346.25" as="geometry" />
        </mxCell>
        <mxCell id="hEPiWNOAB4XM48eltgoP-16" value="投标" style="ellipse;whiteSpace=wrap;html=1;" parent="hEPiWNOAB4XM48eltgoP-17" vertex="1">
          <mxGeometry x="143.46875" y="46" width="62.0625" height="50" as="geometry" />
        </mxCell>
        <mxCell id="hEPiWNOAB4XM48eltgoP-18" value="" style="strokeWidth=2;html=1;shape=mxgraph.flowchart.annotation_2;align=left;labelPosition=right;pointerEvents=1;rotation=-90;" parent="1" vertex="1">
          <mxGeometry x="828.75" y="71.25" width="41.38" height="720" as="geometry" />
        </mxCell>
        <mxCell id="hEPiWNOAB4XM48eltgoP-19" value="分销" style="ellipse;whiteSpace=wrap;html=1;" parent="1" vertex="1">
          <mxGeometry x="818.40875" y="450" width="62.0625" height="50" as="geometry" />
        </mxCell>
        <mxCell id="M6cpoT_YFVFPnxx10Tcq-2" style="edgeStyle=orthogonalEdgeStyle;rounded=0;orthogonalLoop=1;jettySize=auto;html=1;" edge="1" parent="1" source="M6cpoT_YFVFPnxx10Tcq-1" target="hEPiWNOAB4XM48eltgoP-1">
          <mxGeometry relative="1" as="geometry" />
        </mxCell>
        <mxCell id="M6cpoT_YFVFPnxx10Tcq-1" value="发行债券信息收集&lt;br&gt;" style="rounded=0;whiteSpace=wrap;html=1;" vertex="1" parent="1">
          <mxGeometry x="-130" y="350" width="120" height="60" as="geometry" />
        </mxCell>
        <mxCell id="M6cpoT_YFVFPnxx10Tcq-3" value="如经理不确认，则系统定时自动确认" style="shape=callout;whiteSpace=wrap;html=1;perimeter=calloutPerimeter;" vertex="1" parent="1">
          <mxGeometry x="780" y="260" width="120" height="80" as="geometry" />
        </mxCell>
        <mxCell id="M6cpoT_YFVFPnxx10Tcq-4" value="系统自动同步/研究手动录入" style="shape=callout;whiteSpace=wrap;html=1;perimeter=calloutPerimeter;" vertex="1" parent="1">
          <mxGeometry x="-130" y="260" width="120" height="80" as="geometry" />
        </mxCell>
        <mxCell id="M6cpoT_YFVFPnxx10Tcq-5" value="1. 交易员可以手动进行截标，也可以延迟截标，延迟截标后基金经理可以修改原有投标信息，其他经理像投也可以继续投&lt;br&gt;2.交易员投标上报后需要线下处理投标信息，包括用印、发送邮件等" style="shape=callout;whiteSpace=wrap;html=1;perimeter=calloutPerimeter;" vertex="1" parent="1">
          <mxGeometry x="420" y="140" width="120" height="200" as="geometry" />
        </mxCell>
        <mxCell id="M6cpoT_YFVFPnxx10Tcq-6" value="一般为定时任务自动进行冻结资金，也可以手动冻，只有交割方式为缴款的才需要自动冻结" style="shape=callout;whiteSpace=wrap;html=1;perimeter=calloutPerimeter;" vertex="1" parent="1">
          <mxGeometry x="990" y="220" width="120" height="120" as="geometry" />
        </mxCell>
        <mxCell id="M6cpoT_YFVFPnxx10Tcq-7" value="债券可能会多市场发行，所以需要选择市场" style="shape=callout;whiteSpace=wrap;html=1;perimeter=calloutPerimeter;" vertex="1" parent="1">
          <mxGeometry x="60" y="250" width="120" height="90" as="geometry" />
        </mxCell>
        <mxCell id="M6cpoT_YFVFPnxx10Tcq-8" value="组合关联方承销的证券，必须上市买入" style="shape=callout;whiteSpace=wrap;html=1;perimeter=calloutPerimeter;" vertex="1" parent="1">
          <mxGeometry x="230" y="250" width="120" height="90" as="geometry" />
        </mxCell>
        <mxCell id="M6cpoT_YFVFPnxx10Tcq-9" value="" style="strokeWidth=2;html=1;shape=mxgraph.flowchart.annotation_2;align=left;labelPosition=right;pointerEvents=1;" vertex="1" parent="1">
          <mxGeometry x="1440" y="300" width="100" height="160" as="geometry" />
        </mxCell>
        <mxCell id="M6cpoT_YFVFPnxx10Tcq-11" value="归档" style="rounded=0;whiteSpace=wrap;html=1;" vertex="1" parent="1">
          <mxGeometry x="1540" y="430" width="120" height="60" as="geometry" />
        </mxCell>
        <mxCell id="M6cpoT_YFVFPnxx10Tcq-12" value="交割方式为上市" style="text;html=1;strokeColor=none;fillColor=none;align=center;verticalAlign=middle;whiteSpace=wrap;rounded=0;" vertex="1" parent="1">
          <mxGeometry x="1410" y="265" width="140" height="30" as="geometry" />
        </mxCell>
        <mxCell id="M6cpoT_YFVFPnxx10Tcq-13" value="交割方式为缴款" style="text;html=1;strokeColor=none;fillColor=none;align=center;verticalAlign=middle;whiteSpace=wrap;rounded=0;" vertex="1" parent="1">
          <mxGeometry x="1410" y="460" width="140" height="30" as="geometry" />
        </mxCell>
        <mxCell id="M6cpoT_YFVFPnxx10Tcq-14" value="" style="rounded=0;whiteSpace=wrap;html=1;" vertex="1" parent="1">
          <mxGeometry x="1540" y="130" width="150" height="245" as="geometry" />
        </mxCell>
        <mxCell id="M6cpoT_YFVFPnxx10Tcq-10" value="投资界面显示：&lt;br&gt;上市买入" style="rounded=0;whiteSpace=wrap;html=1;" vertex="1" parent="1">
          <mxGeometry x="1555" y="140" width="120" height="60" as="geometry" />
        </mxCell>
        <mxCell id="M6cpoT_YFVFPnxx10Tcq-15" value="风控/运营界面显示：&lt;br&gt;归档" style="rounded=0;whiteSpace=wrap;html=1;" vertex="1" parent="1">
          <mxGeometry x="1555" y="305" width="120" height="60" as="geometry" />
        </mxCell>
        <mxCell id="M6cpoT_YFVFPnxx10Tcq-16" value="交易界面显示：&lt;br&gt;上市买入" style="rounded=0;whiteSpace=wrap;html=1;" vertex="1" parent="1">
          <mxGeometry x="1555" y="220" width="120" height="60" as="geometry" />
        </mxCell>
      </root>
    </mxGraphModel>
  </diagram>
</mxfile>
